# xmcd
#
# Track frame offsets:
#	150
#	26487
#	44432
#	58945
#	80500
#	93442
#	108590
#	126670
#	143387
#	159277
#	177467
#	188817
#	209092
#	228060
#	240175
#	260540
#	273340
#
# Disc length: 3925 seconds
#
# Revision: 4
# Processed by: cddbd v1.5.2PL0 Copyright (c) Steve Scherf et al.
# Submitted via: EZCDAudioConverter 2.1.7.1
#
DISCID=eb0f5311
DTITLE=V/A - Living Chicago Blues V1
DYEAR=1978
DGENRE=Blues
TTITLE0=Jimmy Johnson Blues Band - Your Turn To Cry
TTITLE1=Jimmy Johnson Blues Band - Serves Me Right To Suffer
TTITLE2=Jimmy Johnson Blues Band - Ain't That Just Like A Woman
TTITLE3=Jimmy Johnson Blues Band - Feel Like Breaking Up Somebody's Home
TTITLE4=Eddie Shaw and The Wolf Gang - It' Alright
TTITLE5=Eddie Shaw and The Wolf Gang - Out Of Bad Luck
TTITLE6=Eddie Shaw and The Wolf Gang - Stoop Down, Baby
TTITLE7=Eddie Shaw and The Wolf Gang - Sitting On Top Of The World
TTITLE8=Eddie Shaw and The Wolf Gang - My Baby's So Ugly
TTITLE9=Left Hand Frank and His Blues Band - Come Home, Darling
TTITLE10=Left Hand Frank and His Blues Band - Blues Won't Let Me Be
TTITLE11=Left Hand Frank and His Blues Band - One Room Country Shack
TTITLE12=Left Hand Frank and His Blues Band - Linda Lu
TTITLE13=Carey Bell's Blues Harp Band - Too Late
TTITLE14=Carey Bell's Blues Harp Band - Laundromat Blues
TTITLE15=Carey Bell's Blues Harp Band - One Day
TTITLE16=Carey Bell's Blues Harp Band - Woman In Trouble
EXTD=
EXTT0=
EXTT1=
EXTT2=
EXTT3=
EXTT4=
EXTT5=
EXTT6=
EXTT7=
EXTT8=
EXTT9=
EXTT10=
EXTT11=
EXTT12=
EXTT13=
EXTT14=
EXTT15=
EXTT16=
PLAYORDER=
